<svg xmlns="http://www.w3.org/2000/svg" width="200" height="120" viewBox="0 0 200 120"><rect width="100%" height="100%" fill="#1A1A1A"/><path fill="#E8B923" d="M46.52 58.645h4.32v5.27q-.99.73-2.11 1.07-1.12.33-2.4.33-1.6 0-2.89-.49-1.29-.5-2.2-1.38-.92-.88-1.41-2.1-.5-1.23-.5-2.68 0-1.46.48-2.69.48-1.22 1.36-2.1.87-.89 2.12-1.37 1.26-.49 2.81-.49.79 0 1.48.13.69.12 1.28.34t1.08.54q.48.31.89.69l-.7 1.1q-.16.26-.42.32t-.57-.13q-.29-.17-.59-.34t-.66-.3q-.37-.13-.82-.21t-1.05-.08q-.96 0-1.74.33-.78.32-1.33.92-.55.61-.84 1.45-.3.85-.3 1.89 0 1.12.32 2 .32.87.9 1.48t1.4.93 1.83.32q.72 0 1.28-.16.57-.15 1.11-.41v-2.36h-1.64q-.23 0-.36-.13t-.13-.32zm10.39-2.85q1.03 0 1.87.33.84.34 1.44.95t.92 1.49q.33.89.33 1.97 0 1.1-.33 1.98-.32.89-.92 1.51t-1.44.95q-.84.34-1.87.34t-1.88-.34q-.85-.33-1.44-.95-.6-.62-.93-1.51-.33-.88-.33-1.98 0-1.08.33-1.97.33-.88.93-1.49.59-.61 1.44-.95.85-.33 1.88-.33m0 7.8q1.15 0 1.71-.77.55-.77.55-2.27 0-1.49-.55-2.27-.56-.79-1.71-.79-1.17 0-1.73.79t-.56 2.27q0 1.49.56 2.27.56.77 1.73.77m6.28-11.79h2.23v13.37h-2.23zm10.25 10.63v-4.14q-.38-.46-.83-.64-.44-.19-.96-.19-.5 0-.91.19-.4.18-.69.57-.29.38-.44.97t-.15 1.39q0 .81.13 1.37t.37.92.6.51q.35.16.78.16.69 0 1.18-.29.48-.29.92-.82m0-10.63h2.22v13.37H74.3q-.44 0-.56-.41l-.19-.89q-.56.64-1.28 1.04t-1.69.4q-.75 0-1.38-.32t-1.09-.91q-.45-.6-.7-1.48-.25-.89-.25-2.02 0-1.03.28-1.91t.8-1.53 1.25-1.01q.73-.37 1.64-.37.78 0 1.32.25.55.24.99.65zm16.67 1.58-.6 1.14q-.11.19-.23.28-.12.08-.3.08-.19 0-.41-.14t-.53-.31q-.3-.17-.71-.31t-.97-.14q-.5 0-.88.12-.38.13-.64.34-.25.22-.38.52t-.13.66q0 .46.26.77.26.3.68.52.42.21.96.38l1.11.37q.57.19 1.11.45t.96.65.68.96q.26.56.26 1.37 0 .88-.31 1.65-.3.77-.88 1.35-.58.57-1.41.9-.84.32-1.92.32-.62 0-1.23-.12-.6-.12-1.15-.34-.56-.23-1.04-.54-.49-.32-.87-.71l.72-1.16q.09-.12.23-.21.14-.08.31-.08.22 0 .48.18t.62.41q.36.22.84.41.49.18 1.16.18 1.04 0 1.6-.49.57-.49.57-1.41 0-.51-.26-.83-.25-.33-.68-.55-.42-.22-.96-.37t-1.1-.33-1.1-.44q-.54-.25-.96-.65-.42-.41-.68-1.01-.25-.61-.25-1.5 0-.71.28-1.39.28-.67.82-1.2.54-.52 1.33-.83.8-.32 1.82-.32 1.15 0 2.13.36.97.36 1.65 1.01m4.21 5.26v4.14q.38.45.83.64.44.19.97.19.5 0 .9-.19.41-.19.69-.57.29-.39.44-.98t.15-1.39q0-.81-.13-1.37t-.37-.92q-.24-.35-.59-.51t-.79-.16q-.69 0-1.18.29-.48.29-.92.83m-.29-2.3.18.86q.56-.64 1.28-1.04t1.7-.4q.75 0 1.38.32.62.31 1.08.91.45.6.7 1.48t.25 2.01q0 1.04-.28 1.92t-.8 1.53-1.25 1.01q-.73.37-1.64.37-.78 0-1.32-.24-.55-.24-.99-.67v3.79H92.1v-12.25h1.36q.43 0 .57.4m12.38-.55q1.03 0 1.87.33.84.34 1.44.95t.92 1.49q.33.89.33 1.97 0 1.1-.33 1.98-.32.89-.92 1.51t-1.44.95q-.84.34-1.87.34t-1.88-.34q-.85-.33-1.44-.95-.6-.62-.93-1.51-.33-.88-.33-1.98 0-1.08.33-1.97.33-.88.93-1.49.59-.61 1.44-.95.85-.33 1.88-.33m0 7.8q1.15 0 1.71-.77.55-.77.55-2.27 0-1.49-.55-2.27-.56-.79-1.71-.79-1.17 0-1.73.79t-.56 2.27q0 1.49.56 2.27.56.77 1.73.77m8.18-7.25.16.73q.27-.28.59-.52.31-.24.65-.4.35-.17.74-.26.4-.1.87-.1.75 0 1.34.26.58.25.98.72.39.46.59 1.11.2.64.2 1.41v5.88h-2.22v-5.88q0-.84-.39-1.31-.38-.46-1.18-.46-.57 0-1.08.26-.5.26-.95.71v6.68h-2.22v-9.23h1.36q.43 0 .56.4m14.37.59-.51.81q-.09.14-.19.2t-.25.06q-.16 0-.34-.09-.19-.09-.43-.21-.25-.11-.56-.2t-.73-.09q-.66 0-1.03.28t-.37.73q0 .3.19.5t.51.35q.32.16.73.28.4.12.82.26.42.15.82.33.41.19.73.47t.51.68q.2.4.2.95 0 .67-.24 1.23-.24.57-.71.98-.47.4-1.16.63-.68.23-1.58.23-.48 0-.94-.08-.45-.09-.87-.24t-.77-.36q-.36-.21-.63-.45l.51-.85q.1-.15.24-.23.13-.08.34-.08t.39.12l.43.25q.24.13.57.25t.83.12q.4 0 .68-.1.29-.09.47-.25.19-.15.27-.35.09-.2.09-.42 0-.32-.2-.53-.19-.21-.51-.36t-.73-.27q-.41-.13-.84-.27-.42-.14-.83-.34-.41-.19-.73-.49t-.51-.73q-.2-.43-.2-1.04 0-.57.23-1.08.22-.51.66-.9.43-.38 1.09-.61.65-.23 1.5-.23.96 0 1.74.32.78.31 1.31.82m5.86-1.14q1.02 0 1.86.33.84.34 1.44.95t.93 1.49q.32.89.32 1.97 0 1.1-.32 1.98-.33.89-.93 1.51t-1.44.95q-.84.34-1.86.34-1.04 0-1.89-.34-.84-.33-1.44-.95t-.93-1.51q-.33-.88-.33-1.98 0-1.08.33-1.97.33-.88.93-1.49t1.44-.95q.85-.33 1.89-.33m0 7.8q1.15 0 1.7-.77t.55-2.27q0-1.49-.55-2.27-.55-.79-1.7-.79-1.17 0-1.74.79-.56.79-.56 2.27 0 1.49.56 2.27.57.77 1.74.77m8.21-7.1.14 1.05q.43-.83 1.02-1.3.6-.48 1.41-.48.64 0 1.02.28l-.14 1.67q-.05.16-.13.23-.09.07-.23.07t-.4-.05q-.27-.04-.52-.04-.37 0-.66.1-.28.11-.51.31-.23.21-.41.49-.17.29-.33.66v5.69h-2.22v-9.23h1.31q.34 0 .47.12.14.12.18.43m13.52 6.61h3.34q.36 0 .57.2t.21.54v1.33h-8.93v-.74q0-.22.1-.47.09-.25.3-.45l3.95-3.96q.5-.5.89-.96t.65-.91.4-.91q.14-.47.14-.98 0-.47-.13-.82-.14-.36-.39-.6-.24-.24-.59-.36-.35-.13-.78-.13-.4 0-.73.12-.34.11-.6.31t-.44.47-.27.6q-.16.41-.4.55-.24.13-.7.06l-1.17-.21q.13-.93.52-1.64t.97-1.18 1.33-.71 1.62-.24q.9 0 1.64.27.75.26 1.28.75.53.48.83 1.17.3.68.3 1.52 0 .72-.21 1.33-.22.61-.57 1.17-.36.56-.83 1.08-.48.52-1 1.06l-2.94 3q.43-.13.84-.19.42-.07.8-.07"/></svg>