<svg xmlns="http://www.w3.org/2000/svg" width="200" height="120" viewBox="0 0 200 120"><rect width="100%" height="100%" fill="#1A1A1A"/><path fill="#C0C0C0" d="m57.695 49.365-1.24 2.34q-.22.39-.47.57-.25.17-.62.17-.39 0-.85-.28-.45-.29-1.08-.64t-1.47-.64-1.99-.29q-1.03 0-1.81.25t-1.31.7q-.52.44-.78 1.06t-.26 1.36q0 .95.53 1.57.52.63 1.39 1.08.87.44 1.98.79t2.28.75q1.16.4 2.27.93 1.11.52 1.98 1.33.87.8 1.4 1.97.53 1.16.53 2.83 0 1.81-.62 3.39-.62 1.59-1.82 2.76-1.19 1.18-2.91 1.85-1.72.68-3.94.68-1.28 0-2.52-.25-1.23-.25-2.37-.72-1.14-.46-2.14-1.11-1-.64-1.78-1.44l1.47-2.39q.18-.25.48-.43.29-.18.63-.18.46 0 1 .38.53.38 1.27.84.74.47 1.73.85t2.38.38q2.13 0 3.29-1.01 1.17-1.01 1.17-2.9 0-1.05-.53-1.72-.53-.66-1.4-1.12-.87-.45-1.98-.77-1.11-.31-2.25-.68-1.15-.37-2.26-.89t-1.98-1.35-1.4-2.08q-.52-1.25-.52-3.08 0-1.46.58-2.85t1.69-2.46 2.74-1.72 3.74-.65q2.36 0 4.36.74t3.41 2.08m4.23 5.25h4.59v18.98h-4.59zm5.22-5.53q0 .59-.24 1.11t-.64.9q-.4.39-.93.62-.54.24-1.15.24-.59 0-1.12-.24-.53-.23-.91-.62-.39-.38-.62-.9-.24-.52-.24-1.11 0-.61.24-1.15.23-.54.62-.92.38-.39.91-.62.53-.24 1.12-.24.61 0 1.15.24.53.23.93.62.4.38.64.92t.24 1.15m4.09-2.98h4.57v27.49h-4.57zm22.64 8.51h3.61l-7.53 18.98h-4.14l-7.53-18.98h3.77q.52 0 .86.24t.45.61l3.67 10.14q.29.89.52 1.74.22.85.38 1.7.19-.85.41-1.7t.54-1.74l3.73-10.14q.13-.37.47-.61.33-.24.79-.24m9.64 7.31h8.62q0-.89-.25-1.68-.25-.78-.75-1.38-.5-.59-1.26-.93-.77-.34-1.79-.34-1.98 0-3.12 1.13-1.13 1.12-1.45 3.2m11.66 2.75h-11.75q.11 1.46.52 2.53.4 1.06 1.07 1.76.67.69 1.58 1.03.92.34 2.03.34t1.91-.25q.81-.26 1.41-.58.6-.31 1.05-.57.46-.26.88-.26.57 0 .85.42l1.32 1.67q-.76.89-1.71 1.49-.94.6-1.97.96-1.02.36-2.09.51-1.06.15-2.06.15-1.98 0-3.68-.66t-2.96-1.94q-1.26-1.29-1.98-3.18-.72-1.9-.72-4.4 0-1.94.63-3.65t1.8-2.98q1.18-1.27 2.87-2.01t3.82-.74q1.79 0 3.31.58 1.52.57 2.61 1.67t1.71 2.7.62 3.66q0 1.03-.22 1.39t-.85.36m8.52-8.91.28 2.14q.89-1.7 2.11-2.67t2.89-.97q1.31 0 2.11.57l-.3 3.42q-.09.34-.27.48-.17.13-.47.13-.28 0-.82-.09-.55-.09-1.07-.09-.76 0-1.35.22t-1.06.64-.83 1.01-.68 1.35v11.69h-4.57v-18.98h2.68q.71 0 .98.25.28.25.37.9m20.91-1.04-2.41-.43q.28-1.92 1.08-3.37.79-1.45 1.99-2.43 1.19-.97 2.73-1.46 1.55-.49 3.33-.49 1.85 0 3.33.53 1.49.53 2.55 1.46 1.05.94 1.62 2.19.56 1.26.56 2.72 0 1.28-.29 2.25-.28.97-.82 1.69-.54.73-1.33 1.23-.8.49-1.8.83 2.41.76 3.59 2.31 1.19 1.55 1.19 3.9 0 2-.74 3.54-.74 1.53-2 2.58-1.26 1.04-2.91 1.58-1.66.54-3.51.54-2.02 0-3.52-.47-1.49-.46-2.6-1.37-1.11-.9-1.89-2.22-.78-1.31-1.33-3.03l2.01-.83q.8-.33 1.49-.18.7.16 1.01.75.33.65.73 1.28t.96 1.12q.55.49 1.3.79.75.31 1.78.31 1.17 0 2.04-.38t1.45-.99.87-1.36.29-1.51q0-.96-.21-1.75-.2-.78-.85-1.34-.64-.55-1.86-.87-1.21-.31-3.24-.31v-3.26q1.68-.02 2.79-.31 1.11-.3 1.77-.83.65-.52.91-1.26t.26-1.63q0-1.89-1.05-2.87-1.06-.98-2.81-.98-.82 0-1.5.23-.69.23-1.23.65-.55.42-.92.97-.37.56-.55 1.22-.32.85-.83 1.13t-1.43.13"/></svg>